
<svg version="1.1" id="Layer_1" xmlns="http://www.w3.org/2000/svg" xmlns:xlink="http://www.w3.org/1999/xlink" x="0px" y="0px"
	 viewBox="0 0 438.4 339.6" enable-background="new 0 0 438.4 339.6" xml:space="preserve">
<g>
	<g>
		<path fill="#FFFFFF" d="M122.2,319.8h-2.7v-14.5c0-3.1-1.6-5-4.5-5c-2,0-3.8,0.9-5.2,2.8c-1.4,1.9-2.1,4.4-2.1,7.4v9.2h-2.7v-30.4
			h2.7v13.5c1.4-3.3,4.6-5.1,7.7-5.1c4.3,0,6.8,2.6,6.8,7.1V319.8z"/>
		<path fill="#FFFFFF" d="M168.8,309h-16.3c0,5.2,2.6,8.7,6.8,8.7c3.3,0,5.1-1.3,6.7-4.6l2.4,1.2c-2.2,4.3-4.9,6-9,6
			c-2.9,0-5.2-1-7-3.1c-1.8-2.1-2.7-4.8-2.7-8s0.9-5.9,2.7-8c1.8-2.1,4.1-3.2,7-3.2c2.8,0,5.1,0.9,6.8,2.8c1.8,1.8,2.7,4.3,2.7,7.2
			V309z M152.7,306.5h13.4c-0.5-3.8-2.9-6.2-6.8-6.2C155.9,300.3,153.4,302.9,152.7,306.5z"/>
		<path fill="#FFFFFF" d="M208,301.1c-0.9-0.5-2-0.8-3.1-0.8c-3.5,0-6,4-6,11.1v8.4h-2.7v-21.7h2.7v3.9c1.3-2.8,3.5-4.2,6.4-4.2
			c1,0,2.1,0.3,3.3,0.7L208,301.1z"/>
		<path fill="#FFFFFF" d="M263.1,319.8h-2.7v-14.5c0-3.4-1-5-3.9-5c-1.8,0-3.4,0.9-4.6,2.8c-1.2,1.8-1.8,4.3-1.8,7.3v9.5h-2.7v-14.5
			c0-3.4-1-5-3.9-5c-1.8,0-3.4,0.9-4.6,2.8c-1.2,1.8-1.8,4.3-1.8,7.3v9.5h-2.7v-21.7h2.7v4.5c1.4-3,3.8-4.9,6.9-4.9
			c3.3,0,5.2,1.6,5.9,4.8c1.5-2.8,4.2-4.8,7.1-4.8c4.2,0,6.1,2.3,6.1,7.1V319.8z"/>
		<path fill="#FFFFFF" d="M291.3,290.4c0.9-0.9,2.3-0.9,3.1,0c0.9,0.8,0.9,2.3,0,3.1c-0.8,0.8-2.3,0.8-3.1,0
			C290.5,292.7,290.5,291.2,291.3,290.4z M291.6,298.2h2.7v21.7h-2.7V298.2z"/>
		<path fill="#FFFFFF" d="M320.8,300.7v-2.5h3.8v-7l2.8-1.8v8.8h5.8v2.5h-5.8v13.5c0,2.4,1,3.6,3,3.6c1.1,0,2-0.2,2.7-0.7l0.7,2.4
			c-0.9,0.5-2.2,0.8-3.8,0.8c-3.3,0-5.4-2.1-5.4-6.5v-13H320.8z"/>
	</g>
	<g>
		<path fill="#FFFFFF" d="M417,321.6h-20c0-76.5-79.8-138.7-177.8-138.7S41.4,245.1,41.4,321.6h-20V18.1h20v233.6
			c9.7-15.8,22.7-30.4,38.8-43.2c37.2-29.5,86.6-45.7,139-45.7s101.8,16.2,139,45.7C396.1,238.6,417,278.7,417,321.6z"/>



	</g>

	
</g>
</svg>
