<?xml version="1.0" encoding="utf-8"?>
<!-- Generator: Adobe Illustrator 18.0.0, SVG Export Plug-In . SVG Version: 6.00 Build 0)  -->
<!DOCTYPE svg PUBLIC "-//W3C//DTD SVG 1.1//EN" "http://www.w3.org/Graphics/SVG/1.1/DTD/svg11.dtd">
<svg version="1.1" id="Layer_1" xmlns="http://www.w3.org/2000/svg" xmlns:xlink="http://www.w3.org/1999/xlink" x="0px" y="0px"
	 viewBox="0 0 108 92" enable-background="new 0 0 108 108" xml:space="preserve">
<g>
	<g>
		<path fill="#FFFFFF" d="M27.1,80.3h1.2v2.8c0.4-0.6,0.9-0.9,1.6-0.9c1,0,1.6,0.5,1.6,1.5v3.6h-1.2v-3.1c0-0.6-0.2-0.9-0.7-0.9
			c-0.6,0-1.2,0.7-1.2,1.9v2.1h-1.2V80.3z"/>
		<path fill="#FFFFFF" d="M42.3,85.2h-3.4c0,0.6,0.5,1.1,1.2,1.1c0.5,0,0.9-0.3,1.2-0.8l1,0.4c-0.4,1-1.2,1.5-2.3,1.5
			c-1.7,0-2.4-1.4-2.4-2.6c0-1.2,0.7-2.6,2.4-2.6c0.8,0,1.4,0.3,1.8,0.8c0.4,0.5,0.5,1.1,0.5,1.6V85.2z M38.9,84.2H41
			c-0.1-0.6-0.5-1-1.1-1C39.4,83.3,39,83.7,38.9,84.2z"/>
		<path fill="#FFFFFF" d="M49.6,87.3h-1.2v-5h1.2v0.8c0.4-0.6,0.9-0.9,1.5-0.9c0.2,0,0.4,0,0.6,0.1l-0.2,1.1
			c-0.1-0.1-0.3-0.1-0.5-0.1c-0.8,0-1.3,0.7-1.3,2.2V87.3z"/>
		<path fill="#FFFFFF" d="M61.6,87.3h-1.2v-3.3c0-0.5-0.2-0.7-0.6-0.7c-0.6,0-1.1,0.8-1.1,2.2v1.8h-1.2v-5h1.2v0.8
			c0.4-0.6,0.9-0.9,1.4-0.9c0.6,0,1.2,0.3,1.4,1c0.4-0.7,0.9-1,1.5-1c0.9,0,1.5,0.6,1.5,1.5v3.5h-1.2v-3.3c0-0.5-0.2-0.7-0.6-0.7
			c-0.6,0-1.1,0.7-1.1,2.1V87.3z"/>
		<path fill="#FFFFFF" d="M70.8,80.3c0.3-0.3,0.8-0.3,1.1,0c0.3,0.3,0.3,0.8,0,1.1c-0.3,0.3-0.8,0.3-1.1,0
			C70.5,81.1,70.5,80.6,70.8,80.3z M70.8,82.3H72v5h-1.2V82.3z"/>
		<path fill="#FFFFFF" d="M81.3,87.2c-0.3,0.1-0.5,0.2-0.8,0.2c-1.1,0-1.8-0.6-1.8-1.8v-2.2h-0.8v-1h0.8V81l1.2-0.8v2h1.3v1h-1.3
			v2.2c0,0.6,0.2,0.8,0.7,0.8c0.2,0,0.3,0,0.5-0.1L81.3,87.2z"/>
	</g>
	<g>
		<path fill="#FFFFFF" d="M97.4,87.3H93c0-16.8-17.5-30.5-39.1-30.5S14.8,70.5,14.8,87.3h-4.4V20.6h4.4V72c2.1-3.5,5-6.7,8.5-9.5
			c8.2-6.5,19-10.1,30.6-10.1c11.5,0,22.4,3.6,30.6,10.1C92.8,69.1,97.4,77.9,97.4,87.3z"/>
	</g>
</g>
</svg>
